HIERARCHY
ROOT Hips
{
  OFFSET 2.11349 39.5137 -3.81104
  CHANNELS 6 Xposition Yposition Zposition Zrotation Xrotation Yrotation
  JOINT Chest
  {
    OFFSET 0 4.57 0
    CHANNELS 6 Xposition Yposition Zposition Zrotation Xrotation Yrotation
    JOINT Chest2
    {
      OFFSET 0 6.57 0
      CHANNELS 6 Xposition Yposition Zposition Zrotation Xrotation Yrotation
      JOINT LeftCollar
      {
        OFFSET 1.06 4.19 1.76
        CHANNELS 6 Xposition Yposition Zposition Zrotation Xrotation Yrotation
        JOINT LeftShoulder
        {
          OFFSET 5.81 0 0
          CHANNELS 6 Xposition Yposition Zposition Zrotation Xrotation Yrotation
          JOINT LeftElbow
          {
            OFFSET 0 -12.08 0
            CHANNELS 6 Xposition Yposition Zposition Zrotation Xrotation Yrotation
            JOINT LeftWrist
            {
              OFFSET 0 -9.82 0
              CHANNELS 6 Xposition Yposition Zposition Zrotation Xrotation Yrotation
              End Site
              {
                OFFSET 0 -7.37 0
              }
            }
          }
        }
      }
      JOINT RightCollar
      {
        OFFSET -1.06 4.19 1.76
        CHANNELS 6 Xposition Yposition Zposition Zrotation Xrotation Yrotation
        JOINT RightShoulder
        {
          OFFSET -6.06 0 0
          CHANNELS 6 Xposition Yposition Zposition Zrotation Xrotation Yrotation
          JOINT RightElbow
          {
            OFFSET 0 -11.08 0
            CHANNELS 6 Xposition Yposition Zposition Zrotation Xrotation Yrotation
            JOINT RightWrist
            {
              OFFSET 0 -9.82 0
              CHANNELS 6 Xposition Yposition Zposition Zrotation Xrotation Yrotation
              End Site
              {
                OFFSET 0 -7.14001 0
              }
            }
          }
        }
      }
      JOINT Neck
      {
        OFFSET 0 4.05 0
        CHANNELS 6 Xposition Yposition Zposition Zrotation Xrotation Yrotation
        JOINT Head
        {
          OFFSET 0 5.19 0
          CHANNELS 6 Xposition Yposition Zposition Zrotation Xrotation Yrotation
          End Site
          {
            OFFSET 0 4.14001 0
          }
        }
      }
    }
  }
  JOINT LeftHip
  {
    OFFSET 3.43 0 0
    CHANNELS 6 Xposition Yposition Zposition Zrotation Xrotation Yrotation
    JOINT LeftKnee
    {
      OFFSET 0 -18.47 0
      CHANNELS 6 Xposition Yposition Zposition Zrotation Xrotation Yrotation
      JOINT LeftAnkle
      {
        OFFSET 0 -17.95 0
        CHANNELS 6 Xposition Yposition Zposition Zrotation Xrotation Yrotation
        End Site
        {
          OFFSET 0 -3.12 0
        }
      }
    }
  }
  JOINT RightHip
  {
    OFFSET -3.43 0 0
    CHANNELS 6 Xposition Yposition Zposition Zrotation Xrotation Yrotation
    JOINT RightKnee
    {
      OFFSET 0 -18.47 0
      CHANNELS 6 Xposition Yposition Zposition Zrotation Xrotation Yrotation
      JOINT RightAnkle
      {
        OFFSET 0 -17.95 0
        CHANNELS 6 Xposition Yposition Zposition Zrotation Xrotation Yrotation
        End Site
        {
          OFFSET 0 -3.12 0
        }
      }
    }
  }
}
MOTION
Frames:	4
Frame Time:	0.04
-0.980452 40.768 4.7562 -1.84346 -2.1701 2.54044 4.44089e-016 4.57 -7.10543e-015 1.02717 2.02297 0.342946 1.19904e-014 6.57 0 2.31749 2.29384 0.223331 1.06 4.19 1.76 -33.3866 5.18706 -14.8277 5.81 7.10543e-015 4.44089e-015 45.369 -12.0538 2.29274 -5.04485e-013 -12.08 5.32907e-014 -7.4895 -10.3791 -33.8465 -4.94893e-012 -9.82 4.27036e-012 0.26078 1.63041 -0.00371063 -1.06 4.19 1.76 20.4542 3.96492 16.1903 -6.06 1.42109e-014 -1.24345e-014 -37.2945 -5.73563 -0.312418 -4.15668e-013 -11.08 -4.15668e-013 5.88325 -5.50746 26.2348 -1.51346e-012 -9.82 -5.75184e-012 -1.69947 -1.61451 -0.0239477 2.22045e-014 4.05 2.66454e-015 -9.70971 5.23548 -2.38197 9.76996e-014 5.19 1.19904e-014 8.13289 -12.7797 -6.75455 3.43 -3.55271e-014 8.88178e-016 9.14208 -14.0255 2.94887 -1.96287e-013 -18.47 2.34479e-013 1.37167e-007 57.0328 -2.57768 -3.68505e-012 -17.95 5.06262e-014 -1.54254 4.08252 0.0549824 -3.43 -3.55271e-014 1.77636e-015 3.36933 -0.475225 -8.81001 -7.363e-013 -18.47 3.4639e-013 0.7267 0.184151 12.9482 -3.20677e-012 -17.95 -1.68754e-014 -1.99421 2.63985 0.0459534 
-1.05263 40.8398 5.93759 -1.09918 -1.93716 2.89773 4.44089e-016 4.57 -7.10543e-015 0.450906 2.08799 1.21952 1.19904e-014 6.57 0 1.48657 2.37376 1.29497 1.06 4.19 1.76 -32.3951 4.93264 -14.5059 5.81 7.10543e-015 4.44089e-015 44.6955 -7.67223 2.14449 -6.78568e-013 -12.08 -7.10543e-014 -8.71979 -10.8532 -35.2826 -8.20677e-012 -9.82 5.32197e-012 0.363117 2.51293 -0.00796425 -1.06 4.19 1.76 20.5994 3.96241 16.0858 -6.06 1.42109e-014 -1.24345e-014 -39.1159 -9.82441 -1.0044 -4.86278e-014 -11.08 -3.03424e-013 5.70061 -5.79658 26.3456 -6.64357e-013 -9.82 -2.75424e-012 -1.44345 -1.58051 -0.0199113 2.22045e-014 4.05 2.66454e-015 -8.88054 6.00503 -3.25743 9.76996e-014 5.19 1.19904e-014 8.08096 -12.8513 -7.38681 3.43 -3.55271e-014 8.88178e-016 7.60828 -17.9543 2.47897 -1.08447e-012 -18.47 8.17124e-013 -9.62838e-009 53.3073 -0.879236 1.59162e-012 -17.95 -1.39533e-012 -0.488183 1.14569 0.00488105 -3.43 -3.55271e-014 1.77636e-015 2.69057 1.15762 -8.61183 -3.44169e-013 -18.47 1.73195e-013 1.05312 0.260693 12.0855 -1.64446e-012 -17.95 -4.08562e-014 -2.5274 0.77593 0.0171168 
-1.11548 40.8657 7.0893 -0.530602 -1.66754 2.91899 4.44089e-016 4.57 -7.10543e-015 0.0264677 2.08019 2.17099 1.19904e-014 6.57 0 0.828448 2.37282 2.45358 1.06 4.19 1.76 -31.5961 4.72182 -14.2138 5.81 7.10543e-015 4.44089e-015 44.6681 -2.91352 1.84823 -5.44092e-013 -12.08 -1.38371e-013 -10.4212 -12.3088 -36.213 -3.85469e-012 -9.82 1.56319e-012 0.460052 3.47635 -0.0139609 -1.06 4.19 1.76 20.5553 3.93457 15.9936 -6.06 1.42109e-014 -1.24345e-014 -41.0271 -13.4634 -2.27553 2.34479e-013 -11.08 -1.94511e-013 5.25536 -6.31619 25.7636 2.09965e-012 -9.82 3.18856e-012 -0.79424 -2.04795 -0.0141962 2.22045e-014 4.05 2.66454e-015 -8.41235 6.76141 -4.14209 9.76996e-014 5.19 1.19904e-014 8.2086 -12.9119 -8.11863 3.43 -3.55271e-014 8.88178e-016 6.08992 -20.4538 2.49168 3.25961e-013 -18.47 9.66338e-013 5.76734e-009 45.9152 0.912424 3.49587e-012 -17.95 9.00169e-013 1.09594 0.373829 -0.00357536 -3.43 -3.55271e-014 1.77636e-015 2.15226 2.68169 -7.38188 6.30163e-013 -18.47 2.33591e-013 1.34729 0.32293 10.9002 2.27685e-012 -17.95 6.39488e-013 -2.98591 -1.00751 -0.0262591 
-1.14516 40.8456 8.23745 -0.187611 -1.35664 2.6995 4.44089e-016 4.57 -7.10543e-015 -0.326059 1.98266 3.15405 1.19904e-014 6.57 0 0.229401 2.28265 3.58243 1.06 4.19 1.76 -29.9109 4.3427 -13.751 5.81 7.10543e-015 4.44089e-015 43.6572 1.3308 0.708842 -2.81322e-013 -12.08 -2.04281e-013 -11.1622 -13.5514 -36.4153 -3.9222e-012 -9.82 1.82965e-012 0.829433 3.77572 -0.0273397 -1.06 4.19 1.76 20.7981 3.98147 16.041 -6.06 1.42109e-014 -1.24345e-014 -43.2053 -16.4088 -3.49378 2.23821e-013 -11.08 -7.89369e-014 4.26822 -7.48535 23.4795 4.29878e-012 -9.82 5.64881e-013 -0.573275 -2.08392 -0.0104266 2.22045e-014 4.05 2.66454e-015 -7.32352 7.41277 -4.97434 9.76996e-014 5.19 1.19904e-014 8.2139 -13.0983 -8.69287 3.43 -3.55271e-014 8.88178e-016 4.54299 -21.2961 2.18826 -9.32587e-014 -18.47 -6.50147e-013 -2.0601e-008 35.0311 2.33033 4.0945e-013 -17.95 -2.34479e-013 1.14044 1.65752 -0.0164976 -3.43 -3.55271e-014 1.77636e-015 1.79474 4.16402 -5.97589 2.18492e-013 -18.47 -1.37135e-012 1.56602 0.362197 9.8553 2.14495e-012 -17.95 -3.27027e-012 -3.33837 -2.79354 -0.0814228 
